<?xml version="1.0" encoding="UTF-8" standalone="no"?>
<!-- Created with Inkscape (http://www.inkscape.org/) -->

<svg
   width="100"
   height="50"
   viewBox="0 0 26.458333 13.229167"
   version="1.1"
   id="svg241"
   inkscape:version="1.1.2 (b8e25be8, 2022-02-05)"
   sodipodi:docname="navbar-logo.svg"
   xmlns:inkscape="http://www.inkscape.org/namespaces/inkscape"
   xmlns:sodipodi="http://sodipodi.sourceforge.net/DTD/sodipodi-0.dtd"
   xmlns="http://www.w3.org/2000/svg"
   xmlns:svg="http://www.w3.org/2000/svg">
  <sodipodi:namedview
     id="namedview243"
     pagecolor="#212529"
     bordercolor="#666666"
     borderopacity="1.0"
     inkscape:pageshadow="2"
     inkscape:pageopacity="0"
     inkscape:pagecheckerboard="0"
     inkscape:document-units="mm"
     showgrid="false"
     units="px"
     inkscape:zoom="11.313708"
     inkscape:cx="56.43596"
     inkscape:cy="25.190679"
     inkscape:window-width="1312"
     inkscape:window-height="798"
     inkscape:window-x="0"
     inkscape:window-y="25"
     inkscape:window-maximized="0"
     inkscape:current-layer="layer1" />
  <defs
     id="defs238" />
  <g
     inkscape:label="Layer 1"
     inkscape:groupmode="layer"
     id="layer1">
    <path
       style="fill:#fddc58;stroke-width:0.0108674"
       d="m 6.9761073,7.0733067 c -0.00419,-0.004 -0.00726,-0.36552 -0.00726,-0.803412 0,-0.709298 -0.00186,-0.79803 -0.017079,-0.813244 -0.0094,-0.0094 -0.017963,-0.01809 -0.019034,-0.01932 -9.307e-4,-0.0012 -0.1266459,-0.0049 -0.2790593,-0.0082 l -0.2771187,-0.0059 -0.00279,-0.176805 c -0.00186,-0.109624 0.0014,-0.184983 0.00852,-0.19833 0.011309,-0.02118 0.025456,-0.02152 0.8846318,-0.02152 0.7297844,0 0.8751567,0.0024 0.885581,0.01502 0.00856,0.01033 0.011541,0.07236 0.00949,0.19833 l -0.00279,0.183309 -0.2781937,0.0054 c -0.2134933,0.0042 -0.2823681,0.0089 -0.2961384,0.02035 -0.016381,0.01361 -0.017963,0.08389 -0.017963,0.806016 0,0.435105 -0.00279,0.798836 -0.00661,0.808291 -0.00577,0.01506 -0.041744,0.01719 -0.2916057,0.01719 -0.15676,0 -0.2882736,-0.0032 -0.2922572,-0.0072 z"
       id="path303" />
    <path
       id="path295"
       style="fill:#fddc58;stroke-width:0.0108674"
       d="m 3.148971,7.1211727 c -0.4064404,-0.0055 -0.7397959,-0.01079 -0.740789,-0.01173 -0.00107,-9.78e-4 0.00465,-0.471178 0.012449,-1.044977 0.010476,-0.767431 0.011043,-1.045269 0.00214,-1.05083 -0.00667,-0.0042 -0.00889,-0.0108 -0.00491,-0.01476 0.00396,-0.004 0.3461401,-0.0027 0.760403,0.0029 0.718396,0.0097 0.734623,0.01033 0.3511121,0.01398 l -0.4020939,0.0039 0.4914185,0.0068 c 0.2702807,0.0038 0.4928594,0.009 0.4946204,0.01164 0.00177,0.0027 0.00158,0.116628 -6.515e-4,0.253236 l -0.00382,0.248378 -0.5042759,-0.008 c -0.3981625,-0.0063 -0.5077367,-0.0052 -0.5207182,0.0056 -0.022324,0.01852 -0.024209,0.284431 -0.00214,0.302741 0.00959,0.008 0.1818541,0.01435 0.5227695,0.0194 l 0.5084726,0.0075 -0.00645,0.03899 c -0.00354,0.02144 -0.00651,0.119177 -0.00657,0.217193 l -1.196e-4,0.17821 -0.5058912,-0.0079 c -0.387847,-0.0061 -0.5095646,-0.0049 -0.5216354,0.0051 -0.022417,0.01861 -0.022892,0.284367 -5.584e-4,0.302915 0.010778,0.0089 0.1593279,0.01459 0.5102371,0.01938 0.2722664,0.0038 0.4994811,0.0096 0.5049209,0.01316 0.00573,0.0038 0.00761,0.110417 0.00442,0.253637 l -0.00542,0.247233 -0.099031,-0.0019 c -0.054467,-0.0011 -0.4315739,-0.0064 -0.8380148,-0.01188 z M 0.46623644,7.0642907 c -0.011653,-0.03037 -0.00782,-2.019482 0.00386,-2.037659 0.0058,-0.009 0.01061,-0.01141 0.010694,-0.0054 1.075e-4,0.0071 0.1764452,0.0097 0.51365056,0.0076 0.6769072,-0.0043 0.8175412,0.01006 1.0057816,0.103073 0.095164,0.04702 0.2051036,0.149467 0.2446498,0.227972 0.075067,0.149022 0.067653,0.368902 -0.017889,0.530612 -0.044866,0.0848 -0.146842,0.186176 -0.2354513,0.234049 -0.055371,0.02991 -0.071343,0.04419 -0.073901,0.06605 -0.00205,0.01788 0.06147,0.171581 0.1771288,0.42832 0.1157022,0.256838 0.1792262,0.410451 0.1771409,0.428366 l -0.00321,0.02793 -0.3012025,0.0029 -0.3012031,0.0029 -0.015343,-0.03006 c -0.00844,-0.01654 -0.075513,-0.195718 -0.1490553,-0.398195 -0.1560359,-0.429599 -0.1412609,-0.408773 -0.29005,-0.40884 -0.1425304,-6.5e-5 -0.1331262,-0.02967 -0.1331262,0.419068 0,0.238156 -0.0041,0.383333 -0.011257,0.396661 -0.010666,0.01994 -0.025502,0.02102 -0.28734426,0.02102 -0.1900958,0 -0.2784101,-0.0038 -0.2835287,-0.01203 -0.00533,-0.0086 -0.00969,-0.0084 -0.015427,9.3e-4 -0.0057,0.0092 -0.01,0.0077 -0.014938,-0.0052 z M 1.514706,5.8632467 c 0.060143,-0.0167 0.1101066,-0.0555 0.1390922,-0.108011 0.05131,-0.09294 0.024483,-0.236503 -0.055603,-0.297591 -0.067049,-0.05114 -0.1165451,-0.06152 -0.2933285,-0.06152 -0.1568033,0 -0.1977908,0.007 -0.217818,0.03695 -0.00442,0.0066 -0.00806,0.09876 -0.00815,0.204853 -2.183e-4,0.252993 -0.015674,0.236387 0.2198986,0.236306 0.097126,-3.4e-5 0.1942861,-0.005 0.2159091,-0.01098 z m 2.7749995,1.20396 c -0.00289,-0.0076 -0.004,-0.468606 -0.00242,-1.024473 l 0.00279,-1.010669 0.2643439,-0.0029 0.2643433,-0.0029 0.026294,0.03008 c 0.014459,0.01655 0.1757526,0.237919 0.3584258,0.491945 0.1826732,0.254026 0.3421808,0.470423 0.3544605,0.480883 0.025577,0.02179 0.030156,0.02252 0.052522,0.0084 0.01397,-0.0088 0.017079,-0.08146 0.021733,-0.507885 l 0.00544,-0.497586 h 0.2282148 0.2282176 l 0.00279,1.009487 c 0.00186,0.736854 -4.654e-4,1.013474 -0.00949,1.024252 -0.00959,0.01156 -0.060196,0.01476 -0.2327178,0.01476 H 5.634132 L 5.231011,6.5329887 C 5.0092946,6.2317777 4.8205721,5.9825237 4.8116267,5.9790917 c -0.013165,-0.0051 -0.036592,-0.0015 -0.051329,0.0078 -0.00135,8.84e-4 -0.00502,0.24607 -0.00815,0.544924 l -0.00569,0.543369 -0.2257554,0.0029 c -0.1746944,0.0023 -0.2269448,-1.85e-4 -0.2310186,-0.01087 z M 0.76086104,5.0076077 c 0.15092096,-0.0018 0.39788266,-0.0018 0.54880276,0 0.1509215,0.0018 0.027438,0.0031 -0.274401,0.0031 -0.30184236,0 -0.42532276,-0.0014 -0.27440176,-0.0031 z m 3.66231316,2.4e-5 c 0.073219,-0.0019 0.1930324,-0.0019 0.2662509,0 0.073219,0.0019 0.013314,0.0034 -0.1331257,0.0034 -0.1464376,0 -0.2063442,-0.0016 -0.1331252,-0.0034 z m 1.3312555,8e-6 c 0.064254,-0.002 0.1693962,-0.002 0.2336499,0 0.064254,0.002 0.011681,0.0035 -0.1168266,0.0035 -0.128505,0 -0.1810765,-0.0016 -0.1168233,-0.0035 z m 1.0766868,-3.8e-5 c 0.2440076,-0.0016 0.6401262,-0.0016 0.8802573,10e-7 0.2401311,0.0016 0.040487,0.0029 -0.4436562,0.0029 -0.4841433,-1e-6 -0.6806133,-0.0013 -0.4366011,-0.003 z" />
    <path
       style="fill:#fddc58;stroke-width:0.0108674"
       d="m 26.304338,7.1473488 c 0,-0.0075 -0.101288,-0.01231 -0.301569,-0.01423 l -0.30157,-0.0029 -0.04617,-0.135843 c -0.06605,-0.194423 -0.0788,-0.226634 -0.09688,-0.244711 -0.0135,-0.01351 -0.06851,-0.0161 -0.341344,-0.0161 -0.297637,0 -0.326895,0.0017 -0.344635,0.01938 -0.01066,0.01066 -0.04309,0.09013 -0.07204,0.176595 -0.02895,0.08646 -0.05947,0.16821 -0.0678,0.181659 -0.01494,0.02415 -0.01806,0.02445 -0.252817,0.02445 -0.272781,0 -0.263427,0.0039 -0.229772,-0.09572 0.06007,-0.177826 0.675913,-1.908094 0.685519,-1.926043 0.0062,-0.01158 0.02215,-0.02379 0.03551,-0.02713 0.01331,-0.0033 0.155438,-0.0047 0.3158,-0.0029 l 0.291559,0.0032 0.0235,0.02742 c 0.01405,0.01642 0.158761,0.411998 0.360388,0.985236 0.186767,0.531008 0.339706,0.950039 0.34321,0.940361 0.0049,-0.01351 0.0079,-0.01145 0.01345,0.0091 0.01066,0.03994 0.0088,0.09506 -0.0033,0.102658 -0.006,0.0038 -0.01084,0.0016 -0.01084,-0.0047 z"
       id="path283" />
    <path
       style="fill:#fddc58;stroke-width:0.0108674"
       d="m 23.377387,7.1284348 c -0.0042,-0.004 -0.0073,-0.460252 -0.0073,-1.013929 0,-0.768486 0.0033,-1.009769 0.01303,-1.019724 0.0095,-0.0095 0.08855,-0.01303 0.287603,-0.01303 0.260328,0 0.275146,0.0011 0.285812,0.02102 0.01503,0.02805 0.01564,1.965614 9.31e-4,2.005043 l -0.01061,0.02788 h -0.281009 c -0.154554,0 -0.284272,-0.0032 -0.288255,-0.0072 z"
       id="path49" />
    <path
       style="fill:#fddc58;stroke-width:0.0108674"
       d="m 21.271456,7.1229936 c -0.0047,-0.0044 -0.008,-0.464315 -0.008,-1.022061 v -1.014068 l 0.02936,-0.0074 c 0.05385,-0.01351 0.880881,0.0058 0.986822,0.02306 0.30748,0.05007 0.495824,0.145229 0.653738,0.330302 0.159217,0.186606 0.222978,0.376316 0.222824,0.663026 -1.72e-4,0.336921 -0.09372,0.579077 -0.296045,0.766398 -0.123454,0.114298 -0.252384,0.183445 -0.433744,0.232624 -0.103186,0.02798 -0.10428,0.02803 -0.625173,0.03205 -0.286994,0.0022 -0.525399,4.14e-4 -0.529787,-0.004 z"
       id="path45" />
    <path
       style="fill:#fddc58;stroke-width:0.0108674"
       d="m 16.715671,7.1284278 c -0.004,-0.004 -0.0072,-0.463154 -0.0072,-1.020373 0,-0.913815 0.0017,-1.013775 0.01719,-1.019725 0.02963,-0.01137 0.819347,-0.0075 0.841066,0.0041 0.01446,0.0077 0.06259,0.140374 0.172988,0.476689 0.08412,0.256281 0.159746,0.471604 0.168051,0.478497 0.01969,0.01634 0.04476,0.0061 0.05838,-0.02376 0.006,-0.01312 0.0706,-0.221912 0.143613,-0.463983 0.09543,-0.31641 0.138996,-0.445511 0.154977,-0.459275 0.02053,-0.01767 0.05439,-0.01893 0.441982,-0.0163 l 0.419752,0.0029 v 1.021536 1.021535 h -0.287987 -0.287986 l -0.0054,-0.659812 c -0.0048,-0.580759 -0.0075,-0.661858 -0.02252,-0.676895 -0.02082,-0.02081 -0.04691,-0.01247 -0.06132,0.01963 -0.0059,0.01312 -0.100257,0.307493 -0.209699,0.654164 -0.109441,0.34667 -0.206292,0.638867 -0.215225,0.649327 -0.0142,0.01663 -0.03788,0.01901 -0.188666,0.01901 -0.168365,0 -0.172682,-6.52e-4 -0.183238,-0.02446 -0.0059,-0.01344 -0.09883,-0.298309 -0.206419,-0.633025 -0.107585,-0.334716 -0.20087,-0.621672 -0.2073,-0.637679 -0.01624,-0.04043 -0.04321,-0.04822 -0.06666,-0.01926 -0.01776,0.02193 -0.01911,0.0693 -0.01911,0.66901 v 0.645406 h -0.220966 c -0.121534,0 -0.224232,-0.0032 -0.228216,-0.0072 z"
       id="path43" />
    <path
       style="stroke-width:0.0108674"
       d="m 25.417868,6.2818018 c 0.0094,-0.0094 0.01708,-0.02295 0.01708,-0.03012 0,-0.01339 -0.15065,-0.44555 -0.178828,-0.51298 -0.01187,-0.02847 -0.02215,-0.03752 -0.04263,-0.03752 -0.0302,0 -0.03225,0.0046 -0.15871,0.356206 -0.06475,0.180061 -0.0668,0.188864 -0.04992,0.214632 l 0.01759,0.02687 h 0.189155 c 0.157467,0 0.192011,-0.0029 0.206228,-0.01708 z"
       id="path41" />
    <path
       style="fill:#fddc58;stroke-width:0.0108674"
       d="m 19.305737,7.1791388 c 0,-0.006 0.0052,-0.01087 0.0115,-0.01087 0.0081,0 0.0092,-0.313856 0.0037,-1.048703 l -0.0078,-1.048704 0.656479,-3.3e-5 c 0.361067,-2.2e-5 0.740837,-0.0032 0.843944,-0.0071 l 0.187461,-0.0071 v 0.257095 0.257094 h -0.508607 c -0.381083,0 -0.511861,0.0033 -0.521634,0.01304 -0.0087,0.0088 -0.01303,0.05796 -0.01303,0.14997 0,0.09201 0.0042,0.141208 0.01303,0.149971 0.0098,0.0098 0.140551,0.01303 0.521634,0.01303 h 0.508594 v 0.217349 0.217347 h -0.503159 c -0.376857,0 -0.506434,0.0033 -0.516202,0.01304 -0.01768,0.01767 -0.01824,0.297603 -4.66e-4,0.308483 0.0068,0.0042 0.241546,0.0066 0.521634,0.0053 l 0.509255,-0.0023 v 0.250163 0.250164 l -0.06792,0.0039 -0.06792,0.0039 0.0815,0.0039 0.0815,0.0039 -0.114109,0.0077 c -0.184803,0.0125 -1.619242,0.01206 -1.619242,-4.65e-4 z"
       id="path1770" />
    <path
       id="path14848"
       style="fill:#fefefe;fill-opacity:1;stroke:#ffffff;stroke-width:0.0883883;stroke-opacity:1"
       transform="scale(0.26458333)"
       d="m 54.712387,26.715986 -0.928077,-0.02814 0.02675,-3.640589 c 0.01471,-2.002324 0.04092,-3.654759 0.05824,-3.672077 0.01732,-0.01732 1.337735,-0.003 2.93426,0.03185 l 2.902772,0.06333 -0.02742,0.849326 -0.02742,0.849325 H 57.86695 56.082407 v 0.574525 0.574524 l 1.767767,0.04893 c 0.972271,0.02691 1.77771,0.05674 1.789864,0.06629 0.01215,0.0096 0.0221,0.338017 0.0221,0.729927 v 0.712564 l -1.775311,-0.02057 c -1.454263,-0.01685 -1.789686,0.0021 -1.854802,0.105029 -0.0978,0.154518 -0.10476,0.792918 -0.01027,0.941678 0.04896,0.07708 0.591844,0.126441 1.854802,0.16864 l 1.785579,0.05966 v 0.549515 c 0,0.302233 -0.02486,0.673811 -0.05524,0.825729 l -0.05524,0.276213 -1.955592,-0.01877 c -1.075576,-0.01032 -2.373227,-0.03143 -2.88367,-0.04691 z M 48.591494,26.62714 47.110989,26.60062 V 22.920565 19.24051 l 1.922447,0.05805 c 1.057346,0.03193 2.3898,0.05815 2.96101,0.05827 l 1.038563,2.17e-4 v 0.837896 0.837896 l -1.834059,0.02389 -1.834058,0.02389 -0.02692,0.522131 c -0.01845,0.357881 0.0094,0.545139 0.08839,0.595268 0.06342,0.04022 0.890919,0.07365 1.838884,0.07428 l 1.723572,0.0011 -0.02854,0.74982 -0.02854,0.749819 -1.783418,-0.02041 -1.783418,-0.02041 -0.02613,0.596622 -0.02614,0.596621 h 0.741462 c 0.407805,0 1.225005,0.026 1.816,0.05778 l 1.074537,0.05778 v 0.826106 0.826106 l -1.43631,-0.01981 c -0.789971,-0.01089 -2.102538,-0.03175 -2.916816,-0.04633 z m 7.757827,0.163438 c -1.432993,-0.01939 -2.608312,-0.03803 -2.611812,-0.04135 -0.0038,-0.0034 0.01625,-1.661241 0.04388,-3.684294 0.03666,-2.705745 0.03874,-3.685323 0.0076,-3.70493 -0.02381,-0.01482 -0.03137,-0.03807 -0.01739,-0.05204 0.01436,-0.0141 1.220391,-0.0095 2.680967,0.01024 2.532858,0.03421 2.590072,0.0364 1.23792,0.04929 l -1.417671,0.01376 1.732604,0.02396 c 0.952939,0.01342 1.737686,0.03175 1.743892,0.04104 0.0064,0.0095 0.0057,0.411197 -0.0023,0.892838 l -0.01361,0.875711 -1.777931,-0.0282 c -1.403811,-0.02222 -1.79014,-0.01833 -1.835906,0.01973 -0.07869,0.06529 -0.08534,1.002823 -0.0076,1.067379 0.03402,0.0282 0.641167,0.05059 1.843136,0.0684 l 1.792736,0.02646 -0.02306,0.137468 c -0.01209,0.07559 -0.02305,0.420185 -0.02343,0.765761 l -4.23e-4,0.628319 -1.783627,-0.02782 c -1.367441,-0.0215 -1.79658,-0.01727 -1.839137,0.01799 -0.07903,0.06561 -0.08069,1.002598 -0.002,1.067993 0.03795,0.03141 0.561743,0.05144 1.798949,0.06833 0.95994,0.01342 1.761029,0.03383 1.780211,0.0464 0.02003,0.01342 0.02683,0.389298 0.0155,0.894253 l -0.0189,0.871673 -0.349153,-0.0067 c -0.192038,-0.0039 -1.521611,-0.02256 -2.954604,-0.04189 z M 49.649315,26.68473 c -1.432993,-0.01939 -2.608313,-0.03803 -2.611813,-0.04136 -0.0038,-0.0034 0.01625,-1.66124 0.04388,-3.684293 0.03666,-2.705745 0.03874,-3.685324 0.0076,-3.70493 -0.02381,-0.01482 -0.03137,-0.03807 -0.01739,-0.05204 0.01436,-0.0141 1.22039,-0.0095 2.680966,0.01024 2.532858,0.03421 2.590073,0.0364 1.23792,0.04929 l -1.41767,0.01376 1.732603,0.02396 c 0.95294,0.01342 1.737687,0.03175 1.743893,0.04104 0.0064,0.0095 0.0057,0.411197 -0.0023,0.892839 l -0.01361,0.87571 -1.777932,-0.0282 c -1.403811,-0.02222 -1.790139,-0.01833 -1.835905,0.01973 -0.07869,0.06529 -0.08534,1.002824 -0.0076,1.06738 0.03402,0.0282 0.641166,0.05059 1.843135,0.0684 l 1.792736,0.02646 -0.02305,0.137469 c -0.01209,0.07559 -0.02305,0.420185 -0.02343,0.765761 l -4.23e-4,0.628318 -1.783627,-0.02782 c -1.367441,-0.02151 -1.79658,-0.01727 -1.839137,0.01799 -0.07903,0.06561 -0.08069,1.002597 -0.002,1.067992 0.03795,0.03141 0.561744,0.05144 1.79895,0.06833 0.959939,0.01342 1.761029,0.03383 1.78021,0.0464 0.02003,0.01342 0.02684,0.389297 0.0155,0.894252 l -0.0189,0.871674 -0.349153,-0.0067 c -0.192038,-0.0039 -1.521612,-0.02256 -2.954604,-0.04188 z M 33.57907,26.481707 c -0.0525,-0.07498 -0.05916,-0.477867 -0.05916,-3.580447 0,-2.625079 0.0116,-3.527406 0.04546,-3.622211 l 0.04546,-0.126255 h 2.785306 2.785309 l 0.04448,0.08305 c 0.0627,0.1172 0.02721,1.525831 -0.04097,1.607475 -0.04199,0.05058 -0.252057,0.05835 -1.592926,0.05884 -1.167646,4.27e-4 -1.567746,0.01221 -1.639598,0.04857 -0.0926,0.04677 -0.09532,0.05993 -0.105752,0.512984 -0.0064,0.277829 0.0053,0.495446 0.03024,0.540695 0.03897,0.07261 0.08073,0.07574 1.019182,0.07574 0.82423,0 0.991988,0.0094 1.063149,0.05918 0.08247,0.05778 0.08447,0.07695 0.08391,0.807871 -3.06e-4,0.411782 -0.01701,0.774353 -0.03628,0.805717 -0.03061,0.04787 -0.198879,0.05884 -1.052696,0.06834 -0.652563,0.0073 -1.034318,0.02593 -1.065915,0.05219 -0.03829,0.03194 -0.04947,0.31931 -0.04947,1.319542 v 1.278681 l -0.151484,0.04727 c -0.10371,0.03239 -0.450481,0.04727 -1.100356,0.04727 -0.937448,0 -0.949596,-9.78e-4 -1.008059,-0.0845 z m 6.432302,0.03507 -0.104542,-0.04133 v -3.597031 c 0,-2.877192 0.0102,-3.610477 0.04898,-3.664127 0.04596,-0.06307 0.179338,-0.06608 2.233531,-0.05068 1.806652,0.01353 2.23051,0.02672 2.450596,0.07629 0.629552,0.141717 1.076614,0.361912 1.40665,0.692851 0.378379,0.379421 0.51205,0.741383 0.512791,1.388524 5.14e-4,0.461607 -0.06062,0.744556 -0.237846,1.100991 -0.15685,0.315285 -0.539119,0.703387 -0.845204,0.857943 -0.125518,0.06335 -0.225147,0.13191 -0.221405,0.152361 0.0033,0.02041 0.283162,0.651139 0.621184,1.401533 0.338003,0.75039 0.623426,1.41923 0.634311,1.486308 0.01739,0.108159 0.0064,0.128961 -0.104315,0.183859 -0.105638,0.05272 -0.280706,0.0619 -1.180475,0.0619 -0.663266,0 -1.06515,-0.01425 -1.079917,-0.03803 -0.01361,-0.0209 -0.05386,-0.03803 -0.0912,-0.03803 -0.05439,0 -0.160025,-0.254702 -0.538239,-1.298564 -0.258784,-0.714212 -0.49745,-1.331774 -0.530298,-1.372363 -0.0757,-0.09346 -0.535298,-0.142504 -0.626472,-0.06684 -0.04947,0.04107 -0.0576,0.235302 -0.0576,1.373276 v 1.325446 l -0.137726,0.05753 c -0.111533,0.04662 -0.319256,0.05678 -1.093009,0.05349 -0.588344,-0.0025 -0.995455,-0.01992 -1.059844,-0.04537 z m 3.545473,-4.440265 c 0.619064,-0.132768 0.720007,-0.873381 0.163615,-1.200431 -0.1745,-0.102569 -0.208554,-0.10814 -0.737646,-0.120412 -0.477362,-0.01104 -0.563471,-0.004 -0.617783,0.05024 -0.0912,0.09121 -0.09411,1.161795 -0.0033,1.252509 0.04796,0.04787 0.153222,0.05975 0.530378,0.05975 0.258822,0 0.558002,-0.01871 0.6648,-0.04162 z" />
    <path
       style="stroke-width:0.0108674"
       d="m 22.038884,6.7046948 c 0.09814,-0.02064 0.202618,-0.07385 0.262385,-0.133616 0.052,-0.052 0.112732,-0.169595 0.135805,-0.262968 0.01996,-0.08087 0.01982,-0.376602 -2.56e-4,-0.45643 -0.06614,-0.262985 -0.243654,-0.389307 -0.549212,-0.390848 -0.125603,-6.98e-4 -0.114965,-0.05859 -0.114965,0.626181 0,0.688948 -0.0101,0.634196 0.116827,0.63387 0.04035,-1.09e-4 0.107584,-0.0074 0.149426,-0.01619 z"
       id="path47" />
  </g>
</svg>
