<?xml version="1.0" encoding="UTF-8" standalone="no"?>
<!-- Created with Inkscape (http://www.inkscape.org/) -->

<svg
   width="229"
   height="39"
   viewBox="0 0 60.589583 10.31875"
   version="1.1"
   id="svg241"
   inkscape:version="1.1.2 (b8e25be8, 2022-02-05)"
   sodipodi:docname="navbar-logo.svg"
   xmlns:inkscape="http://www.inkscape.org/namespaces/inkscape"
   xmlns:sodipodi="http://sodipodi.sourceforge.net/DTD/sodipodi-0.dtd"
   xmlns="http://www.w3.org/2000/svg"
   xmlns:svg="http://www.w3.org/2000/svg">
  <sodipodi:namedview
     id="namedview243"
     pagecolor="#212529"
     bordercolor="#666666"
     borderopacity="1.0"
     inkscape:pageshadow="2"
     inkscape:pageopacity="0"
     inkscape:pagecheckerboard="0"
     inkscape:document-units="mm"
     showgrid="false"
     units="px"
     inkscape:zoom="5.6568542"
     inkscape:cx="113.57903"
     inkscape:cy="4.2426407"
     inkscape:window-width="1312"
     inkscape:window-height="798"
     inkscape:window-x="0"
     inkscape:window-y="25"
     inkscape:window-maximized="0"
     inkscape:current-layer="layer1" />
  <defs
     id="defs238" />
  <g
     inkscape:label="Layer 1"
     inkscape:groupmode="layer"
     id="layer1">
    <path
       id="path295"
       style="fill:#fddc58;stroke-width:0.0231055"
       d="M 7.1350372,7.2272508 C 6.2708938,7.2155594 5.562138,7.2043138 5.5600265,7.2023138 c -0.00228,-0.00204 0.00989,-1.0017843 0.026468,-2.2217532 0.022273,-1.6316549 0.023479,-2.2223734 0.00455,-2.2341968 -0.014181,-0.00893 -0.018902,-0.022962 -0.010439,-0.031382 0.00842,-0.0085 0.7359374,-0.00574 1.6167125,0.00617 1.5274005,0.020624 1.5619008,0.021963 0.7465085,0.029723 l -0.8549021,0.0083 1.0448176,0.014458 c 0.5746509,0.00808 1.0478811,0.019134 1.0516251,0.024748 0.00375,0.00574 0.00339,0.2479658 -0.00141,0.5384117 L 9.1758379,3.8648741 8.1036839,3.847865 C 7.2571404,3.8344705 7.0241718,3.8368101 6.9965715,3.859771 c -0.047465,0.039376 -0.051472,0.6047361 -0.00455,0.6436654 0.02039,0.017009 0.3866446,0.03051 1.1114738,0.041247 l 1.0810768,0.015947 -0.013711,0.082898 c -0.00752,0.045584 -0.013839,0.2533853 -0.013966,0.4617797 L 9.1566387,5.484197 8.08105,5.4674006 c -0.8246116,-0.01297 -1.0833986,-0.010419 -1.1090626,0.010844 -0.047661,0.039567 -0.048671,0.6046001 -0.00118,0.6440355 0.022914,0.018923 0.3387512,0.031021 1.0848282,0.041204 0.5788726,0.00808 1.0619601,0.02041 1.0735251,0.027981 0.012186,0.00808 0.016177,0.2347604 0.0094,0.5392648 l -0.011529,0.525648 -0.2105525,-0.00403 C 8.8006645,7.2500167 7.9988885,7.2387422 7.1347439,7.2270933 Z M 1.4312057,7.1063131 c -0.024776,-0.064567 -0.016627,-4.2936734 0.00821,-4.3323202 0.01233,-0.019135 0.022558,-0.024259 0.022737,-0.01148 2.287e-4,0.015096 0.3751447,0.020623 1.0920858,0.016158 1.4391869,-0.00915 1.7381925,0.021389 2.1384153,0.219146 0.2023265,0.09997 0.436072,0.3177855 0.5201522,0.4846969 C 5.3724078,3.7993534 5.3566448,4.266846 5.174772,4.6106616 5.079381,4.7909572 4.8625675,5.0064955 4.6741729,5.1082794 4.5564471,5.1718714 4.5224887,5.2022324 4.5170501,5.24871 4.5127001,5.286726 4.647743,5.6135128 4.8936482,6.1593723 5.1396455,6.7054422 5.2747055,7.0320434 5.270272,7.0701324 l -0.00682,0.059382 -0.6403944,0.00615 -0.6403958,0.00615 -0.032621,-0.063911 C 3.9320949,7.0427695 3.7894893,6.661814 3.6331291,6.2313225 3.3013772,5.3179409 3.3327906,5.3622197 3.0164463,5.3620772 2.7134088,5.3619391 2.7334032,5.2989956 2.7334032,6.2530682 c 0,0.5063504 -0.00872,0.8150146 -0.023933,0.8433515 -0.022678,0.042393 -0.054221,0.044689 -0.6109302,0.044689 -0.4041674,0 -0.5919349,-0.00808 -0.6028176,-0.02558 -0.011332,-0.018282 -0.020602,-0.017858 -0.0328,0.00198 -0.012118,0.019562 -0.021261,0.016368 -0.03176,-0.011055 z M 3.660384,4.5527418 C 3.7882558,4.5172357 3.8944846,4.4347419 3.9561116,4.3230969 4.0652032,4.1254947 4.0081656,3.8202618 3.8378927,3.6903809 3.6953381,3.5816509 3.5901031,3.5595816 3.2142394,3.5595816 c -0.3333836,0 -0.4205281,0.014882 -0.4631086,0.078561 -0.0094,0.014032 -0.017136,0.2099762 -0.017328,0.4355431 -4.641e-4,0.5378951 -0.033325,0.5025886 0.4675321,0.5024163 0.206502,-7.23e-5 0.4130768,-0.01063 0.4590499,-0.023346 z m 5.8999983,2.5597709 c -0.00615,-0.016156 -0.0085,-0.9963157 -0.00516,-2.178159 l 0.00594,-2.1488095 0.5620287,-0.00617 0.562027,-0.00617 0.0559,0.063954 c 0.03074,0.035189 0.373672,0.5058458 0.762059,1.0459369 0.388385,0.5400914 0.727519,1.0001786 0.753627,1.022418 0.05437,0.046328 0.06411,0.04788 0.111668,0.017859 0.02971,-0.01871 0.03631,-0.1731942 0.04621,-1.0798274 l 0.01157,-1.0579306 h 0.485212 0.485221 l 0.0059,2.1462964 c 0.004,1.5666449 -9.12e-4,2.1547736 -0.02018,2.1776893 -0.02039,0.024577 -0.127984,0.03138 -0.494787,0.03138 H 12.418779 L 11.561717,5.9766976 c -0.471398,-0.6404125 -0.872645,-1.170358 -0.891665,-1.1776547 -0.02799,-0.010842 -0.0778,-0.00319 -0.109131,0.016584 -0.0029,0.00189 -0.01068,0.5231759 -0.01732,1.158577 l -0.0121,1.1552704 -0.479986,0.00615 C 9.6800843,7.1404948 9.5689935,7.1352278 9.5603321,7.1125134 Z M 2.0576149,2.7335456 c 0.3208769,-0.00383 0.8459486,-0.00383 1.1668238,0 0.3208779,0.00383 0.058336,0.00658 -0.5834113,0.00658 -0.6417548,0 -0.9042897,-0.00298 -0.5834125,-0.00658 z m 7.7865388,5.1e-5 c 0.1556728,-0.00403 0.4104113,-0.00403 0.5660833,0 0.155673,0.00403 0.0283,0.00723 -0.283042,0.00723 -0.3113448,0 -0.438714,-0.00341 -0.2830413,-0.00723 z m 2.8304163,1.7e-5 c 0.136613,-0.00425 0.360158,-0.00425 0.496769,0 0.136612,0.00425 0.02483,0.00744 -0.248388,0.00744 -0.273217,0 -0.384991,-0.00341 -0.248381,-0.00744 z m 2.289172,-8.08e-5 c 0.51879,-0.00341 1.360989,-0.00341 1.871538,2.2e-6 0.510549,0.00341 0.08607,0.00617 -0.943269,0.00617 -1.02935,-2.1e-6 -1.447071,-0.00277 -0.928269,-0.00637 z M 15.27201,7.125482 c -0.009,-0.0085 -0.01543,-0.777142 -0.01543,-1.7081553 0,-1.5080568 -0.004,-1.6967122 -0.03631,-1.7290592 -0.01999,-0.019985 -0.03819,-0.038461 -0.04048,-0.041076 -0.002,-0.00255 -0.269266,-0.010418 -0.593315,-0.017435 l -0.589189,-0.012545 -0.0059,-0.3759098 c -0.004,-0.2330744 0.0029,-0.3932971 0.01811,-0.4216744 0.02405,-0.045031 0.05411,-0.045755 1.880839,-0.045755 1.551612,0 1.860692,0.00509 1.882856,0.031935 0.0182,0.021963 0.02454,0.1538463 0.02018,0.4216744 l -0.0059,0.389738 -0.591474,0.011481 c -0.453915,0.00893 -0.600351,0.018923 -0.629629,0.043267 -0.03482,0.028937 -0.03819,0.1783606 -0.03819,1.7136914 0,0.9250886 -0.0059,1.6984263 -0.01405,1.7185291 -0.01226,0.032022 -0.08876,0.03655 -0.619993,0.03655 -0.333289,0 -0.612905,-0.00678 -0.621373,-0.015308 z" />
    <path
       style="fill:#fddc58;stroke-width:0.0250141"
       d="m 59.896942,7.4368084 c 0,-0.017264 -0.23314,-0.028338 -0.694138,-0.032752 l -0.694142,-0.00667 -0.106272,-0.312678 c -0.152032,-0.4475111 -0.181379,-0.5216532 -0.222995,-0.563262 -0.03107,-0.031097 -0.157694,-0.037059 -0.785692,-0.037059 -0.685088,0 -0.752432,0.00391 -0.793265,0.044606 -0.02454,0.024537 -0.09918,0.2074576 -0.165819,0.4064797 -0.06664,0.1990098 -0.136887,0.3871788 -0.15606,0.4181344 -0.03438,0.055587 -0.04157,0.056277 -0.581923,0.056277 -0.627876,0 -0.606346,0.00898 -0.52888,-0.2203238 0.138267,-0.4093127 1.555788,-4.3919716 1.577899,-4.4332859 0.01427,-0.026655 0.05098,-0.054759 0.08174,-0.062447 0.03063,-0.0076 0.357781,-0.010818 0.726896,-0.00667 l 0.671098,0.00737 0.05409,0.063114 c 0.03234,0.037795 0.365429,0.9483199 0.829526,2.2677752 0.429892,1.2222522 0.781921,2.1867603 0.789987,2.1644839 0.01128,-0.031097 0.01818,-0.026353 0.03096,0.020943 0.02454,0.091932 0.02025,0.218805 -0.0076,0.2362935 -0.01381,0.00874 -0.02495,0.00368 -0.02495,-0.01082 z"
       id="path283" />
    <path
       style="fill:#fddc58;stroke-width:0.0250141"
       d="m 53.159808,7.3932732 c -0.0097,-0.0092 -0.01681,-1.0593892 -0.01681,-2.3338199 0,-1.7688691 0.0076,-2.3242442 0.02999,-2.3471582 0.02187,-0.021867 0.20382,-0.029992 0.661992,-0.029992 0.599212,0 0.63332,0.00253 0.65787,0.048383 0.0346,0.064564 0.036,4.5243679 0.0021,4.6151243 l -0.02442,0.06417 h -0.646816 c -0.355745,0 -0.654325,-0.00736 -0.663493,-0.016576 z"
       id="path3018" />
    <path
       style="fill:#fddc58;stroke-width:0.0250141"
       d="m 48.363915,7.3918969 c -0.01082,-0.01013 -0.01841,-1.0687411 -0.01841,-2.3525377 V 2.7052196 l 0.06758,-0.017032 c 0.12395,-0.031097 2.027575,0.013351 2.271426,0.053079 0.707745,0.1152491 1.141267,0.3342821 1.504748,0.7602754 0.366478,0.429522 0.513241,0.8661886 0.512885,1.5261257 -3.95e-4,0.7755107 -0.21572,1.3328953 -0.681423,1.7640633 -0.284161,0.2630858 -0.580927,0.4222456 -0.998374,0.535444 -0.237509,0.0644 -0.240028,0.064515 -1.438997,0.073772 -0.660591,0.00506 -1.209342,9.219e-4 -1.219441,-0.0092 z"
       id="path3014" />
    <path
       style="fill:#fddc58;stroke-width:0.0250141"
       d="m 37.826147,7.3932572 c -0.0092,-0.0092 -0.01658,-1.0660691 -0.01658,-2.3486526 0,-2.1033813 0.0039,-2.333465 0.03956,-2.3471605 0.0682,-0.026171 1.885939,-0.017264 1.935931,0.00944 0.03328,0.017724 0.144067,0.3231071 0.398177,1.0972229 0.193623,0.589897 0.367696,1.0855185 0.386812,1.1013845 0.04532,0.037611 0.103027,0.014041 0.134377,-0.054689 0.01381,-0.0302 0.162504,-0.5107879 0.330562,-1.0679768 0.219657,-0.7282993 0.319935,-1.0254587 0.356719,-1.05714 0.04725,-0.040672 0.125193,-0.043572 1.017336,-0.037519 l 0.966168,0.00667 v 2.351329 2.3513266 h -0.662876 -0.662875 l -0.01243,-1.5187277 c -0.01105,-1.3367669 -0.01727,-1.5234372 -0.05184,-1.5580487 -0.04793,-0.047899 -0.107975,-0.028702 -0.141144,0.045184 -0.01358,0.0302 -0.230767,0.7077746 -0.482676,1.5057274 -0.251907,0.7979504 -0.474834,1.4705175 -0.495396,1.4945941 -0.03268,0.038277 -0.08719,0.043756 -0.434264,0.043756 -0.387536,0 -0.397472,-0.00154 -0.421769,-0.0563 C 39.996379,7.322742 39.782474,6.6670418 39.534831,5.8966066 39.287196,5.1261713 39.072476,4.4656679 39.057676,4.4288238 c -0.03738,-0.09306 -0.09946,-0.1109909 -0.153435,-0.044332 -0.04089,0.050477 -0.04398,0.1595119 -0.04398,1.5398994 v 1.4855686 h -0.50861 c -0.279742,0 -0.516128,-0.00736 -0.525298,-0.016575 z"
       id="path3012" />
    <path
       style="fill:#212529;fill-opacity:1;stroke-width:0.0250141"
       d="m 57.856502,5.4445283 c 0.02163,-0.021637 0.03932,-0.052825 0.03932,-0.069329 0,-0.030821 -0.34676,-1.0255485 -0.411618,-1.1807561 -0.02733,-0.065532 -0.05098,-0.086362 -0.09812,-0.086362 -0.06951,0 -0.07424,0.010588 -0.365313,0.8199002 -0.149039,0.4144569 -0.153757,0.4347193 -0.114904,0.494031 l 0.04049,0.061848 h 0.435389 c 0.362451,0 0.441963,-0.00667 0.474686,-0.039315 z"
       id="path3010" />
    <path
       style="fill:#fddc58;stroke-width:0.0250141"
       d="m 43.787854,7.5099813 c 0,-0.013809 0.01197,-0.02502 0.02647,-0.02502 0.01864,0 0.02118,-0.7224214 0.0085,-2.4138613 l -0.01795,-2.4138631 1.511056,-7.6e-5 c 0.831089,-5.06e-5 1.705227,-0.00737 1.942554,-0.016343 l 0.431491,-0.016342 v 0.5917699 0.5917684 h -1.170691 c -0.877161,0 -1.17818,0.0076 -1.200675,0.030014 -0.02002,0.020255 -0.02999,0.13341 -0.02999,0.3451948 0,0.2117847 0.0097,0.3250267 0.02999,0.3451969 0.02256,0.022557 0.323514,0.029992 1.200675,0.029992 h 1.170661 V 5.0586968 5.558977 h -1.158151 c -0.867433,0 -1.165688,0.0076 -1.188172,0.030014 -0.04069,0.040672 -0.04199,0.6850102 -0.0011,0.7100533 0.01565,0.00967 0.55598,0.015192 1.200676,0.012199 l 1.172182,-0.00529 v 0.5758144 0.5758175 l -0.156335,0.00897 -0.156337,0.00897 0.187594,0.00897 0.187594,0.00897 -0.262652,0.017724 c -0.425372,0.028775 -3.727103,0.027756 -3.727103,-0.00108 z"
       id="path1770" />
    <path
       id="path14848"
       style="fill:#fefefe;fill-opacity:1;stroke:#ffffff;stroke-width:0.0537033;stroke-opacity:1"
       d="m 32.767046,7.2717814 -0.563885,-0.017102 0.01625,-2.2119626 c 0.0089,-1.2165795 0.02486,-2.2205719 0.03539,-2.231094 0.01052,-0.010523 0.812786,-0.00182 1.782808,0.019352 l 1.763676,0.038479 -0.01666,0.5160366 -0.01666,0.5160359 h -1.084259 -1.084259 v 0.3490722 0.3490713 l 1.074067,0.029729 c 0.590735,0.01635 1.080107,0.034475 1.087492,0.040276 0.0074,0.00583 0.01343,0.2053736 0.01343,0.4434918 v 0.4329425 l -1.078651,-0.012498 c -0.883587,-0.010238 -1.087384,0.00128 -1.126947,0.063814 -0.05942,0.093883 -0.06366,0.481764 -0.0062,0.5721481 0.02975,0.046833 0.359595,0.076824 1.126948,0.102463 l 1.084888,0.036249 v 0.3338766 c 0,0.1836314 -0.01511,0.4093962 -0.03356,0.5016997 L 35.707304,7.311684 34.519118,7.300283 C 33.865615,7.294013 33.077184,7.281184 32.767047,7.271781 Z M 29.04809,7.2177991 28.148561,7.2016852 V 4.9657453 2.729804 l 1.168046,0.03527 c 0.642427,0.0194 1.452004,0.035331 1.799062,0.035404 l 0.631014,1.319e-4 v 0.5090919 0.5090919 l -1.114345,0.014515 -1.114343,0.014515 -0.01636,0.3172383 c -0.01121,0.2174426 0.0057,0.3312176 0.05371,0.3616752 0.03853,0.024437 0.541309,0.044748 1.117276,0.045131 l 1.047215,6.683e-4 -0.01734,0.4555784 -0.01734,0.4555778 -1.083576,-0.012401 -1.083575,-0.012401 -0.01588,0.3624978 -0.01589,0.3624972 h 0.450501 c 0.247775,0 0.744293,0.015797 1.103372,0.035106 l 0.652871,0.035106 v 0.501928 0.5019292 L 30.8203,7.2459189 c -0.479973,-0.00658 -1.277467,-0.019289 -1.77221,-0.02815 z m 4.71353,0.099302 c -0.870664,-0.011784 -1.584768,-0.023108 -1.586894,-0.02512 -0.0023,-0.00206 0.0099,-1.0093431 0.02665,-2.2385171 0.02227,-1.6439665 0.02354,-2.2391419 0.0046,-2.2510549 -0.01447,-0.009 -0.01906,-0.023131 -0.01056,-0.031618 0.0087,-0.00857 0.74149,-0.00577 1.628912,0.00622 1.538923,0.020785 1.573685,0.022116 0.75214,0.029947 l -0.861353,0.00836 1.052701,0.014558 c 0.57899,0.00816 1.055789,0.019291 1.05956,0.024935 0.0039,0.00577 0.0034,0.2498367 -0.0014,0.5424738 l -0.0083,0.5320677 -1.080242,-0.017133 c -0.852933,-0.013501 -1.087661,-0.011137 -1.115467,0.011987 -0.04781,0.039669 -0.05185,0.6092989 -0.0046,0.6485222 0.02066,0.017133 0.389562,0.030738 1.119859,0.041559 l 1.089237,0.016077 -0.01401,0.083523 c -0.0074,0.045927 -0.014,0.2552975 -0.01424,0.4652638 L 35.797956,5.560908 34.714253,5.544005 c -0.830834,-0.013063 -1.091572,-0.010493 -1.117429,0.01093 -0.04802,0.039864 -0.04903,0.6091622 -0.0012,0.6488951 0.02305,0.019085 0.341305,0.031255 1.093011,0.041516 0.583244,0.00816 1.069973,0.020555 1.081627,0.028191 0.01217,0.00816 0.01631,0.2365309 0.0094,0.5433338 L 35.768172,7.346485 35.556033,7.342425 C 35.439354,7.340055 34.631527,7.328721 33.760864,7.316976 Z m -4.070815,-0.064312 c -0.870663,-0.011784 -1.584767,-0.023108 -1.586894,-0.025128 -0.0023,-0.00206 0.0099,-1.0093423 0.02665,-2.2385163 0.02227,-1.6439665 0.02354,-2.2391427 0.0046,-2.251055 -0.01447,-0.009 -0.01906,-0.023131 -0.01056,-0.031618 0.0087,-0.00857 0.741488,-0.00577 1.62891,0.00622 1.538924,0.020786 1.573687,0.022117 0.752141,0.029948 l -0.861354,0.00836 1.052701,0.014558 c 0.578991,0.00816 1.055791,0.019291 1.059562,0.024935 0.0039,0.00577 0.0034,0.2498366 -0.0014,0.5424745 l -0.0083,0.532067 -1.080243,-0.017134 c -0.852932,-0.013501 -1.087659,-0.011137 -1.115466,0.011987 -0.0478,0.039669 -0.05184,0.6092994 -0.0046,0.6485226 0.02067,0.017133 0.389562,0.030738 1.119859,0.041559 l 1.089237,0.016077 -0.014,0.083524 c -0.0074,0.045927 -0.014,0.2552974 -0.01423,0.4652638 l -2.57e-4,0.3817558 -1.083702,-0.016903 c -0.830836,-0.013069 -1.091573,-0.010493 -1.11743,0.01093 -0.04802,0.039864 -0.04903,0.6091616 -0.0012,0.6488945 0.02305,0.019085 0.341306,0.031255 1.093013,0.041516 0.583243,0.00816 1.069972,0.020555 1.081626,0.028191 0.01217,0.00816 0.01631,0.2365301 0.0094,0.5433329 l -0.01149,0.5296149 -0.212139,-0.00406 c -0.11668,-0.00237 -0.924507,-0.013704 -1.795171,-0.025449 z M 19.926787,7.1294372 c -0.0319,-0.045557 -0.03595,-0.2903442 -0.03595,-2.1754213 0,-1.5949551 0.007,-2.1431943 0.02762,-2.2007964 l 0.02762,-0.07671 h 1.692306 1.69231 l 0.02702,0.05046 c 0.0381,0.071209 0.01654,0.9270701 -0.02489,0.9766757 -0.02551,0.030732 -0.153146,0.035452 -0.967836,0.035751 -0.709443,2.593e-4 -0.952537,0.00742 -0.996193,0.02951 -0.05626,0.028416 -0.05791,0.036412 -0.06425,0.3116808 -0.0039,0.1688044 0.0033,0.3010249 0.01837,0.3285175 0.02367,0.044117 0.04904,0.046018 0.619239,0.046018 0.500787,0 0.602715,0.00571 0.645952,0.035957 0.05011,0.035106 0.05132,0.046754 0.05098,0.4908493 -1.85e-4,0.2501919 -0.01034,0.4704842 -0.02204,0.4895404 -0.0186,0.029086 -0.120837,0.035751 -0.639602,0.041522 -0.396486,0.00443 -0.628434,0.015754 -0.647632,0.03171 -0.02326,0.019406 -0.03005,0.1940076 -0.03005,0.8017322 v 0.7769058 l -0.09204,0.028724 c -0.06301,0.01968 -0.273706,0.028724 -0.668559,0.028724 -0.569579,0 -0.57696,-5.938e-4 -0.612481,-0.051343 z m 3.908162,0.02131 -0.06352,-0.025112 V 4.9401361 c 0,-1.7481348 0.0062,-2.1936668 0.02976,-2.2262637 0.02792,-0.03832 0.108962,-0.040149 1.357056,-0.030792 1.097692,0.00822 1.355221,0.016234 1.488943,0.046352 0.382505,0.086105 0.654133,0.2198918 0.854657,0.4209649 0.229897,0.23053 0.311114,0.4504522 0.311564,0.8436445 3.12e-4,0.280465 -0.03683,0.4523801 -0.144512,0.6689442 -0.0953,0.191562 -0.32756,0.4273665 -0.513532,0.5212722 -0.07626,0.038491 -0.136796,0.080146 -0.134522,0.092572 0.002,0.012401 0.172044,0.3956214 0.377421,0.8515485 0.205365,0.4559243 0.378784,0.8623011 0.385397,0.9030566 0.01057,0.06572 0.0039,0.078354 -0.06338,0.1117093 -0.06418,0.032029 -0.170552,0.037607 -0.717237,0.037607 -0.40299,0 -0.647167,-0.00866 -0.65614,-0.023108 -0.0083,-0.012702 -0.03272,-0.023108 -0.05541,-0.023108 -0.03305,0 -0.09723,-0.1547527 -0.327026,-0.7889859 -0.157232,-0.4339436 -0.302243,-0.8091642 -0.3222,-0.8338254 -0.04599,-0.056785 -0.325239,-0.086583 -0.380634,-0.040611 -0.03005,0.024953 -0.035,0.1429656 -0.035,0.8343801 v 0.8053191 l -0.08368,0.034952 c -0.06776,0.028326 -0.193974,0.034501 -0.664094,0.032496 -0.357469,-0.00153 -0.604822,-0.012105 -0.643944,-0.027569 z M 25.98912,4.4529148 c 0.376133,-0.080668 0.437465,-0.530652 0.09941,-0.7293622 -0.106024,-0.062319 -0.126714,-0.065704 -0.448181,-0.07316 -0.290038,-0.00671 -0.342356,-0.00243 -0.375355,0.030525 -0.05541,0.055418 -0.05718,0.7058877 -0.002,0.7610041 0.02914,0.029086 0.09309,0.036303 0.322249,0.036303 0.157256,0 0.339033,-0.011368 0.403922,-0.025288 z" />
    <path
       style="fill:#212529;fill-opacity:1;stroke-width:0.0250141"
       d="m 50.105812,6.3640966 c 0.225894,-0.047508 0.466378,-0.1699848 0.603947,-0.3075518 0.119692,-0.1196913 0.259481,-0.3903667 0.31259,-0.6052887 0.04594,-0.1861432 0.04562,-0.866847 -5.89e-4,-1.0505918 -0.152238,-0.6053279 -0.560833,-0.8960907 -1.264154,-0.8996377 -0.289107,-0.00161 -0.264621,-0.13486 -0.264621,1.4413177 0,1.5857919 -0.02325,1.4597659 0.268908,1.4590155 0.09287,-2.509e-4 0.247632,-0.017033 0.343942,-0.037265 z"
       id="path3016" />
  </g>
</svg>
